<?xml version="1.0" encoding="UTF-8"?>
<svg width="24px" height="24px" viewBox="0 0 24 24" version="1.1" xmlns="http://www.w3.org/2000/svg" xmlns:xlink="http://www.w3.org/1999/xlink">
    <title>Icons/24px/Menu</title>
    <defs>
        <path d="M11.0024554,18 C11.514032,18 11.9356655,18.3827202 11.9932888,18.8826674 L12,19 C12,19.5522847 11.5536886,20 11.0024554,20 L3.99754465,20 C3.44661595,20 3,19.5561352 3,19 C3,18.4477153 3.4463114,18 3.99754465,18 L11.0024554,18 Z M20.0066023,11 C20.5160523,11 20.935933,11.3827202 20.9933167,11.8826674 L21,12 C21,12.5522847 20.5550537,13 20.0066023,13 L3.99339768,13 C3.44475929,13 3,12.5561352 3,12 C3,11.4477153 3.44494629,11 3.99339768,11 L20.0066023,11 Z M20.0066023,4 C20.5160523,4 20.935933,4.38272018 20.9933167,4.88266744 L21,5 C21,5.55228475 20.5550537,6 20.0066023,6 L3.99339768,6 C3.44475929,6 3,5.55613518 3,5 C3,4.44771525 3.44494629,4 3.99339768,4 L20.0066023,4 Z" id="path-1"></path>
    </defs>
    <g id="Icons/24px/Menu" stroke="none" stroke-width="1" fill="none" fill-rule="evenodd">
        <mask id="mask-2" fill="white">
            <use xlink:href="#path-1"></use>
        </mask>
        <use id="Combined-Shape" fill="#000000" fill-rule="nonzero" xlink:href="#path-1"></use>
    </g>
</svg>